{"title":"This.Time.with.Alan.Partridge.S01E02.720p.iP.WEB.h264-MKJ","magnet":"magnet:?xt=urn:btih:2e342ce8adb8153efb4b4ee1f378222a827b4f50&dn=This.Time.with.Alan.Partridge.S01E02.720p.iP.WEB.h264-MKJ&tr=udp%3A%2F%2Ftracker.leechers-paradise.org%3A6969&tr=udp%3A%2F%2Fzer0day.ch%3A1337&tr=udp%3A%2F%2Fopen.demonii.com%3A1337&tr=udp%3A%2F%2Ftracker.coppersurfer.tk%3A6969&tr=udp%3A%2F%2Fexodus.desync.com%3A6969","uploader":"M.KJ","categoryP":"video","categoryS":"hd___tv_shows","size":"1176745021","seeders":"104","leechers":"38","description":"This.Time.with.Alan.Partridge.S01E02.720p.iP.WEB.h264-MKJ.mkv\r\n\r\nFormat                      : Matroska\r\nFile size                   : 1.10 GiB\r\nDuration                    : 29mn 17s\r\nOverall bit rate            : 5 357 Kbps\r\nDescription                 : Alan leads the team in mourning the loss of a TV giant. The show will never be the same.\r\nSHOW                        : This Time with Alan Partridge: Series 1\r\nSYNOPSIS                    : Alan and the team host a special show dedicated to the memory of a much-cherished broadcaster. With viewers in shock, it falls to Alan to handle this delicate situation as only he can. But one man&apos;s loss is another&apos;s opportunity...\r\n\r\nVideo\r\nFormat                      : AVC\r\nCodec ID                    : V_MPEG4/ISO/AVC\r\nDuration                    : 29mn 17s\r\nBit rate                    : 5 036 Kbps\r\nWidth                       : 1 280 pixels\r\nHeight                      : 720 pixels\r\nDisplay aspect ratio        : 16:9\r\nFrame rate mode             : Constant\r\nFrame rate                  : 50.000 fps\r\nColor space                 : YUV\r\nChroma subsampling          : 4:2:0\r\nBit depth                   : 8 bits\r\nScan type                   : Progressive\r\nBits/(Pixel*Frame)          : 0.109\r\nStream size                 : 1.03 GiB (94%)\r\nLanguage                    : English\r\n\r\nAudio\r\nFormat                      : AAC\r\nFormat/Info                 : Advanced Audio Codec\r\nDuration                    : 29mn 17s\r\nBit rate                    : 317 Kbps\r\nChannel(s)                  : 2 channels\r\nChannel positions           : Front: L R\r\nSampling rate               : 48.0 KHz\r\nFrame rate                  : 46.875 fps (1024 spf)\r\nCompression mode            : Lossy\r\nStream size                 : 66.5 MiB (6%)\r\nLanguage                    : English\r\nDefault                     : Yes\r\n\r\nText\r\nFormat                      : UTF-8\r\nCodec ID/Info               : UTF-8 Plain Text\r\nDuration                    : 29mn 9s\r\nBit rate                    : 287 bps\r\nStream size                 : 61.4 KiB (0%)\r\nLanguage                    : English","last_updated":"2019-03-05T10:29:45.899Z","parsed":{"xt":"urn:btih:2e342ce8adb8153efb4b4ee1f378222a827b4f50","dn":"This.Time.with.Alan.Partridge.S01E02.720p.iP.WEB.h264-MKJ","tr":["udp://exodus.desync.com:6969","udp://open.demonii.com:1337","udp://tracker.coppersurfer.tk:6969","udp://tracker.leechers-paradise.org:6969","udp://zer0day.ch:1337"],"infoHash":"2e342ce8adb8153efb4b4ee1f378222a827b4f50","infoHashBuffer":{"type":"Buffer","data":[46,52,44,232,173,184,21,62,251,75,78,225,243,120,34,42,130,123,79,80]},"name":"This.Time.with.Alan.Partridge.S01E02.720p.iP.WEB.h264-MKJ","announce":["udp://exodus.desync.com:6969","udp://open.demonii.com:1337","udp://tracker.coppersurfer.tk:6969","udp://tracker.leechers-paradise.org:6969","udp://zer0day.ch:1337"],"urlList":[]}}